<?xml version="1.0" encoding="UTF-8"?>
<!DOCTYPE svg PUBLIC "-//W3C//DTD SVG 1.1//EN" "http://www.w3.org/Graphics/SVG/1.1/DTD/svg11.dtd">
<svg version="1.1" xmlns="http://www.w3.org/2000/svg" xmlns:xlink="http://www.w3.org/1999/xlink" x="0px" y="0px" width="128" height="128" viewBox="0, 0, 128, 128">
  <g id="Background">
    <rect x="0" y="0" width="128" height="128" fill="#000000" fill-opacity="0"/>
  </g>
  <g id="Background">
    <path d="M18.095,6 L109.907,6 C116.561,6 122,11.439 122,18.093 L122,109.907 C122,116.561 116.561,122 109.907,122 L18.095,122 C11.441,122 6,116.561 6,109.907 L6,18.093 C6,11.439 11.441,6 18.095,6" fill="#727272"/>
    <path d="M64,103.788 C76.075,103.728 87.008,105.327 94.859,103.139 C102.797,100.928 107.647,96.027 107.647,90.772 C107.647,85.515 102.765,80.633 94.859,77.13 C86.981,73.641 76.048,71.736 64,71.736 C51.944,71.736 41.011,73.646 33.133,77.135 C25.227,80.638 20.355,85.515 20.355,90.772 C20.355,96.027 25.195,100.923 33.133,103.171 C40.984,105.391 51.926,103.843 64,103.788 z M38.965,76.541 C52.616,75.645 46.761,102.663 43.07,87.506 C42.034,83.237 43.673,79.376 39.029,77.417 C39.029,77.198 38.997,76.76 38.965,76.541 z M47.971,73.92 C63.915,72.874 57.072,104.431 52.761,86.729 C51.551,81.743 53.465,77.235 48.044,74.947 C48.044,74.691 48.008,74.176 47.971,73.92 z M58.369,72.832 C75.268,71.724 68.015,105.167 63.447,86.406 C62.165,81.121 64.197,76.344 58.448,73.92 C58.448,73.65 58.406,73.103 58.369,72.832 z M69.7,73.298 C86.191,72.217 79.117,104.851 74.661,86.543 C73.409,81.387 75.386,76.728 69.777,74.363 C69.777,74.098 69.742,73.563 69.7,73.298 z M81.651,75.271 C96.417,74.303 90.082,103.517 86.092,87.127 C84.972,82.515 86.744,78.34 81.721,76.222 C81.721,75.983 81.688,75.508 81.651,75.271" fill="#EBEDED"/>
    <path d="M91.22,32.023 L81.716,39.682 L81.743,39.69 L81.753,39.69 L81.935,39.759 L95.235,33.146 L85.296,41.166 L85.365,41.198 L98.864,34.484 L88.639,42.727 L102.098,36.038 L91.526,44.564 L91.539,44.573 L104.988,37.882 L94.326,46.481 L107.803,39.782 L98.892,46.966 L111.196,45.975 L100.674,49.313 L110.25,54.295 L99.573,51.491 L106.058,60.602 L97.637,52.83 L99.038,62.872 L95.21,51.715 L94.279,50.898 L95.827,62.028 L91.197,48.524 L90.804,48.248 L92.594,61.095 L87.479,46.179 L87.424,46.147 L89.306,59.676 L84.086,44.435 L84.008,44.399 L85.881,57.804 L80.82,43.056 L80.574,42.96 L82.318,55.484 L77.688,41.965 C72.358,40.302 66.599,39.416 60.704,39.416 C53.584,39.416 46.684,40.705 40.495,43.08 C39.084,43.623 37.708,44.216 36.376,44.875 L51.272,54.245 L30.352,48.412 C28.251,49.875 26.315,51.496 24.57,53.264 L22.095,50.834 C25.583,47.294 29.785,44.303 34.475,41.955 L53.054,17.065 L45.139,37.95 C50.104,36.635 55.355,35.936 60.704,35.936 C66.755,35.936 72.682,36.827 78.204,38.494 z" fill="#EBECEC"/>
  </g>
  <defs/>
</svg>
